<svg height="56" viewBox="0 0 56 56" width="56" xmlns="http://www.w3.org/2000/svg"><path d="m3.20951751 39.2251127 18.04215629 10.2246695c.6419129.3668119 1.2723698.5502178 1.8913706.5502178.6189696 0 1.2570481-.1834059 1.9142357-.5502178l18.0191504-10.2246695c1.0545175-.6113384 1.8531525-1.302916 2.3959051-2.0747327.5424395-.7718104.8136593-1.9753814.8136593-3.6107131v-18.1568104c0-1.192115-.2253644-2.1778964-.6760931-2.9573441-.4510418-.7794791-1.1579661-1.451957-2.1207728-2.0174338l-16.2310248-9.21594795c-1.3755053-.79475377-2.7433732-1.19213065-4.1036038-1.19213065-1.3602305 0-2.7357515.39737688-4.1265627 1.19213065l-16.20815972 9.21594795c-.97814404.5654768-1.69264304 1.2379547-2.14349702 2.0174338-.45085397.7794477-.67628096 1.7652291-.67628096 2.9573441v18.1568104c0 1.6353317.27510105 2.8389027.82530316 3.6107131.55020211.7718167 1.34494023 1.4633943 2.38421435 2.0747327zm2.06325791-3.026146c-.67246229-.3820865-1.13860661-.7832664-1.39843297-1.2035397-.25982635-.4203046-.38973953-.943776-.38973953-1.5704142v-17.3085482l17.85881298 10.2017293v19.0279611zm35.76340308 0-16.0935056 9.1471883v-19.0279611l17.8586252-10.2017293v17.3085482c0 .6266382-.1298975 1.1501096-.3896926 1.5704142-.259795.4202733-.7182707.8214532-1.375427 1.2035397zm-17.8816781-13.0902904-17.69828776-10.018339 7.08390696-4.05777966 17.6982877 10.06416316zm10.7748591-6.0981255-17.7670708-10.04125106 4.4016481-2.49886849c1.7423171-.99341873 3.4693595-.99341873 5.1811273 0l15.1077241 8.61990605z" transform="translate(5 3)"/></svg>