<svg fill="none" height="24" viewBox="0 0 24 24" width="24" xmlns="http://www.w3.org/2000/svg"><g stroke="#FF7464" stroke-width="1.5"><path d="m5.05063 8.73418c-.8449-1.12655-.04109-2.73418 1.36709-2.73418h11.16458c1.4082 0 2.212 1.60763 1.3671 2.73418-.6163.82166-.9494 1.82102-.9494 2.84812v6.4177c0 2.2091-1.7909 4-4 4h-4c-2.20914 0-4-1.7909-4-4v-6.4177c0-1.0271-.33312-2.02646-.94937-2.84812z"/><g stroke-linecap="round"><path d="m14 17v-6" stroke-linejoin="round"/><path d="m10 17v-6" stroke-linejoin="round"/><path d="m16 6-.5442-1.63246c-.2722-.81668-1.0365-1.36754-1.8973-1.36754h-3.117c-.86084 0-1.62512.55086-1.89735 1.36754l-.54415 1.63246"/></g></g></svg>